<svg xmlns="http://www.w3.org/2000/svg" xmlns:xlink="http://www.w3.org/1999/xlink" version="1.1" width="256" height="256" viewBox="0 0 256 256" xml:space="preserve">

<defs>
</defs>
<g style="stroke: none; stroke-width: 0; stroke-dasharray: none; stroke-linecap: butt; stroke-linejoin: miter; stroke-miterlimit: 10; fill: none; fill-rule: nonzero; opacity: 1;" transform="translate(1.4065934065934016 1.4065934065934016) scale(2.81 2.81)" >
	<path d="M 61.859 76.654 H 28.798 c -0.829 0 -1.5 -0.672 -1.5 -1.5 s 0.671 -1.5 1.5 -1.5 h 33.062 c 0.828 0 1.5 0.672 1.5 1.5 S 62.688 76.654 61.859 76.654 z" style="stroke: none; stroke-width: 1; stroke-dasharray: none; stroke-linecap: butt; stroke-linejoin: miter; stroke-miterlimit: 10; fill: rgb(0,0,0); fill-rule: nonzero; opacity: 1;" transform=" matrix(1 0 0 1 0 0) " stroke-linecap="round" />
	<path d="M 81.657 76.654 h -3.582 c -0.828 0 -1.5 -0.672 -1.5 -1.5 s 0.672 -1.5 1.5 -1.5 h 3.582 c 2.946 0 5.343 -2.396 5.343 -5.343 V 50.931 c 0 -1.514 -0.646 -2.962 -1.771 -3.974 L 65.206 28.952 c -0.982 -0.883 -2.252 -1.37 -3.573 -1.37 H 8.343 C 5.397 27.582 3 29.979 3 32.925 v 35.387 c 0 2.946 2.397 5.343 5.343 5.343 h 4.24 c 0.829 0 1.5 0.672 1.5 1.5 s -0.671 1.5 -1.5 1.5 h -4.24 c -4.6 0 -8.343 -3.742 -8.343 -8.343 V 32.925 c 0 -4.6 3.743 -8.343 8.343 -8.343 h 53.29 c 2.063 0 4.044 0.76 5.579 2.139 l 20.023 18.006 C 88.992 46.307 90 48.567 90 50.931 v 17.381 C 90 72.912 86.258 76.654 81.657 76.654 z" style="stroke: none; stroke-width: 1; stroke-dasharray: none; stroke-linecap: butt; stroke-linejoin: miter; stroke-miterlimit: 10; fill: rgb(0,0,0); fill-rule: nonzero; opacity: 1;" transform=" matrix(1 0 0 1 0 0) " stroke-linecap="round" />
	<path d="M 88.5 54.562 H 62.311 c -4.272 0 -7.749 -3.476 -7.749 -7.748 V 26.082 c 0 -0.829 0.672 -1.5 1.5 -1.5 s 1.5 0.671 1.5 1.5 v 20.731 c 0 2.618 2.131 4.748 4.749 4.748 H 88.5 c 0.828 0 1.5 0.672 1.5 1.5 S 89.328 54.562 88.5 54.562 z" style="stroke: none; stroke-width: 1; stroke-dasharray: none; stroke-linecap: butt; stroke-linejoin: miter; stroke-miterlimit: 10; fill: rgb(0,0,0); fill-rule: nonzero; opacity: 1;" transform=" matrix(1 0 0 1 0 0) " stroke-linecap="round" />
	<path d="M 75.901 46.721 c -0.356 0 -0.716 -0.127 -1.002 -0.385 l -12.36 -11.115 c -0.616 -0.554 -0.666 -1.502 -0.112 -2.118 c 0.554 -0.617 1.504 -0.666 2.118 -0.112 l 12.36 11.115 c 0.616 0.554 0.666 1.502 0.112 2.119 C 76.722 46.553 76.313 46.721 75.901 46.721 z" style="stroke: none; stroke-width: 1; stroke-dasharray: none; stroke-linecap: butt; stroke-linejoin: miter; stroke-miterlimit: 10; fill: rgb(0,0,0); fill-rule: nonzero; opacity: 1;" transform=" matrix(1 0 0 1 0 0) " stroke-linecap="round" />
	<path d="M 68.102 48.496 c -0.356 0 -0.716 -0.127 -1.002 -0.385 l -6.18 -5.558 c -0.616 -0.554 -0.666 -1.502 -0.112 -2.118 c 0.552 -0.616 1.501 -0.668 2.118 -0.112 l 6.18 5.558 c 0.616 0.554 0.666 1.502 0.112 2.118 C 68.922 48.328 68.513 48.496 68.102 48.496 z" style="stroke: none; stroke-width: 1; stroke-dasharray: none; stroke-linecap: butt; stroke-linejoin: miter; stroke-miterlimit: 10; fill: rgb(0,0,0); fill-rule: nonzero; opacity: 1;" transform=" matrix(1 0 0 1 0 0) " stroke-linecap="round" />
	<path d="M 20.69 84.762 c -5.298 0 -9.608 -4.31 -9.608 -9.607 s 4.31 -9.608 9.608 -9.608 c 5.297 0 9.607 4.311 9.607 9.608 S 25.988 84.762 20.69 84.762 z M 20.69 68.546 c -3.644 0 -6.608 2.965 -6.608 6.608 s 2.964 6.607 6.608 6.607 s 6.607 -2.964 6.607 -6.607 S 24.334 68.546 20.69 68.546 z" style="stroke: none; stroke-width: 1; stroke-dasharray: none; stroke-linecap: butt; stroke-linejoin: miter; stroke-miterlimit: 10; fill: rgb(0,0,0); fill-rule: nonzero; opacity: 1;" transform=" matrix(1 0 0 1 0 0) " stroke-linecap="round" />
	<path d="M 69.967 84.762 c -5.298 0 -9.607 -4.31 -9.607 -9.607 s 4.31 -9.608 9.607 -9.608 s 9.608 4.311 9.608 9.608 S 75.265 84.762 69.967 84.762 z M 69.967 68.546 c -3.644 0 -6.607 2.965 -6.607 6.608 s 2.964 6.607 6.607 6.607 s 6.608 -2.964 6.608 -6.607 S 73.61 68.546 69.967 68.546 z" style="stroke: none; stroke-width: 1; stroke-dasharray: none; stroke-linecap: butt; stroke-linejoin: miter; stroke-miterlimit: 10; fill: rgb(0,0,0); fill-rule: nonzero; opacity: 1;" transform=" matrix(1 0 0 1 0 0) " stroke-linecap="round" />
	<circle cx="20.692" cy="75.152" r="1.932" style="stroke: none; stroke-width: 1; stroke-dasharray: none; stroke-linecap: butt; stroke-linejoin: miter; stroke-miterlimit: 10; fill: rgb(0,0,0); fill-rule: nonzero; opacity: 1;" transform="  matrix(1 0 0 1 0 0) "/>
	<circle cx="69.962" cy="75.152" r="1.932" style="stroke: none; stroke-width: 1; stroke-dasharray: none; stroke-linecap: butt; stroke-linejoin: miter; stroke-miterlimit: 10; fill: rgb(0,0,0); fill-rule: nonzero; opacity: 1;" transform="  matrix(1 0 0 1 0 0) "/>
	<path d="M 56.062 27.582 h -8.618 c -0.828 0 -1.5 -0.671 -1.5 -1.5 v -2.925 c 0 -3.203 2.606 -5.809 5.81 -5.809 s 5.809 2.606 5.809 5.809 v 2.925 C 57.562 26.911 56.89 27.582 56.062 27.582 z M 48.943 24.582 h 5.618 v -1.425 c 0 -1.549 -1.26 -2.809 -2.809 -2.809 s -2.81 1.26 -2.81 2.809 V 24.582 z" style="stroke: none; stroke-width: 1; stroke-dasharray: none; stroke-linecap: butt; stroke-linejoin: miter; stroke-miterlimit: 10; fill: rgb(0,0,0); fill-rule: nonzero; opacity: 1;" transform=" matrix(1 0 0 1 0 0) " stroke-linecap="round" />
	<path d="M 51.753 14.299 c -0.828 0 -1.5 -0.671 -1.5 -1.5 V 6.738 c 0 -0.829 0.672 -1.5 1.5 -1.5 s 1.5 0.671 1.5 1.5 v 6.061 C 53.253 13.627 52.581 14.299 51.753 14.299 z" style="stroke: none; stroke-width: 1; stroke-dasharray: none; stroke-linecap: butt; stroke-linejoin: miter; stroke-miterlimit: 10; fill: rgb(0,0,0); fill-rule: nonzero; opacity: 1;" transform=" matrix(1 0 0 1 0 0) " stroke-linecap="round" />
	<path d="M 44.233 18.242 c -0.384 0 -0.768 -0.146 -1.061 -0.439 l -4.286 -4.285 c -0.586 -0.585 -0.586 -1.535 0 -2.121 c 0.585 -0.586 1.535 -0.586 2.121 0 l 4.286 4.285 c 0.586 0.585 0.586 1.535 0 2.121 C 45.001 18.096 44.617 18.242 44.233 18.242 z" style="stroke: none; stroke-width: 1; stroke-dasharray: none; stroke-linecap: butt; stroke-linejoin: miter; stroke-miterlimit: 10; fill: rgb(0,0,0); fill-rule: nonzero; opacity: 1;" transform=" matrix(1 0 0 1 0 0) " stroke-linecap="round" />
	<path d="M 59.272 18.242 c -0.384 0 -0.768 -0.146 -1.061 -0.439 c -0.586 -0.585 -0.586 -1.536 0 -2.121 l 4.285 -4.285 c 0.586 -0.586 1.535 -0.586 2.121 0 c 0.586 0.585 0.586 1.536 0 2.121 l -4.285 4.285 C 60.04 18.096 59.656 18.242 59.272 18.242 z" style="stroke: none; stroke-width: 1; stroke-dasharray: none; stroke-linecap: butt; stroke-linejoin: miter; stroke-miterlimit: 10; fill: rgb(0,0,0); fill-rule: nonzero; opacity: 1;" transform=" matrix(1 0 0 1 0 0) " stroke-linecap="round" />
	<path d="M 59.272 63.271 H 1.5 c -0.829 0 -1.5 -0.672 -1.5 -1.5 s 0.671 -1.5 1.5 -1.5 h 57.772 c 0.828 0 1.5 0.672 1.5 1.5 S 60.101 63.271 59.272 63.271 z" style="stroke: none; stroke-width: 1; stroke-dasharray: none; stroke-linecap: butt; stroke-linejoin: miter; stroke-miterlimit: 10; fill: rgb(0,0,0); fill-rule: nonzero; opacity: 1;" transform=" matrix(1 0 0 1 0 0) " stroke-linecap="round" />
	<path d="M 88.5 63.271 h -7.701 c -0.828 0 -1.5 -0.672 -1.5 -1.5 s 0.672 -1.5 1.5 -1.5 H 88.5 c 0.828 0 1.5 0.672 1.5 1.5 S 89.328 63.271 88.5 63.271 z" style="stroke: none; stroke-width: 1; stroke-dasharray: none; stroke-linecap: butt; stroke-linejoin: miter; stroke-miterlimit: 10; fill: rgb(0,0,0); fill-rule: nonzero; opacity: 1;" transform=" matrix(1 0 0 1 0 0) " stroke-linecap="round" />
	<path d="M 36.787 52.518 H 21.949 c -4.278 0 -7.758 -3.48 -7.758 -7.758 v -4.838 c 0 -4.278 3.48 -7.758 7.758 -7.758 h 14.838 c 4.278 0 7.758 3.48 7.758 7.758 v 4.838 C 44.545 49.037 41.065 52.518 36.787 52.518 z M 21.949 35.163 c -2.624 0 -4.758 2.135 -4.758 4.758 v 4.838 c 0 2.624 2.135 4.758 4.758 4.758 h 14.838 c 2.624 0 4.758 -2.135 4.758 -4.758 v -4.838 c 0 -2.624 -2.135 -4.758 -4.758 -4.758 H 21.949 z" style="stroke: none; stroke-width: 1; stroke-dasharray: none; stroke-linecap: butt; stroke-linejoin: miter; stroke-miterlimit: 10; fill: rgb(0,0,0); fill-rule: nonzero; opacity: 1;" transform=" matrix(1 0 0 1 0 0) " stroke-linecap="round" />
	<path d="M 38.103 45.496 c -0.357 0 -0.716 -0.127 -1.002 -0.385 l -6.181 -5.558 c -0.616 -0.554 -0.667 -1.502 -0.112 -2.118 c 0.554 -0.617 1.502 -0.666 2.118 -0.112 l 6.181 5.558 c 0.616 0.554 0.667 1.502 0.112 2.118 C 38.922 45.329 38.513 45.496 38.103 45.496 z" style="stroke: none; stroke-width: 1; stroke-dasharray: none; stroke-linecap: butt; stroke-linejoin: miter; stroke-miterlimit: 10; fill: rgb(0,0,0); fill-rule: nonzero; opacity: 1;" transform=" matrix(1 0 0 1 0 0) " stroke-linecap="round" />
	<path d="M 32.012 47.496 c -0.357 0 -0.716 -0.127 -1.002 -0.385 l -3.09 -2.779 c -0.616 -0.554 -0.667 -1.502 -0.112 -2.118 c 0.553 -0.616 1.502 -0.667 2.118 -0.112 l 3.09 2.779 c 0.616 0.554 0.667 1.502 0.112 2.118 C 32.832 47.328 32.423 47.496 32.012 47.496 z" style="stroke: none; stroke-width: 1; stroke-dasharray: none; stroke-linecap: butt; stroke-linejoin: miter; stroke-miterlimit: 10; fill: rgb(0,0,0); fill-rule: nonzero; opacity: 1;" transform=" matrix(1 0 0 1 0 0) " stroke-linecap="round" />
</g>
</svg>